<mxfile host="app.diagrams.net" agent="Mozilla/5.0 (Windows NT 10.0; Win64; x64; rv:130.0) Gecko/20100101 Firefox/130.0" version="24.7.14">
  <diagram name="Page-1" id="0783ab3e-0a74-02c8-0abd-f7b4e66b4bec">
    <mxGraphModel dx="1021" dy="1064" grid="1" gridSize="10" guides="1" tooltips="1" connect="1" arrows="1" fold="1" page="1" pageScale="1" pageWidth="850" pageHeight="1100" background="none" math="0" shadow="0">
      <root>
        <mxCell id="0" />
        <mxCell id="1" parent="0" />
        <mxCell id="1c1d494c118603dd-1" value="" style="swimlane;html=1;childLayout=stackLayout;startSize=20;rounded=0;shadow=0;comic=0;labelBackgroundColor=none;strokeWidth=1;fontFamily=Verdana;fontSize=12;align=center;strokeColor=#0000CC;" parent="1" vertex="1">
          <mxGeometry x="40" y="20" width="760" height="1070" as="geometry" />
        </mxCell>
        <mxCell id="1c1d494c118603dd-2" value="Requirements" style="swimlane;html=1;startSize=20;" parent="1c1d494c118603dd-1" vertex="1">
          <mxGeometry y="20" width="260" height="1050" as="geometry" />
        </mxCell>
        <mxCell id="CZpLwEG-HmLCasfUJhQn-15" value="" style="rounded=0;whiteSpace=wrap;html=1;" vertex="1" parent="1c1d494c118603dd-2">
          <mxGeometry x="65" y="40" width="120" height="60" as="geometry" />
        </mxCell>
        <mxCell id="CZpLwEG-HmLCasfUJhQn-16" value="F01&lt;br&gt;Snelheidsdetector" style="text;html=1;align=center;verticalAlign=middle;whiteSpace=wrap;rounded=0;" vertex="1" parent="1c1d494c118603dd-2">
          <mxGeometry x="67.5" y="55" width="115" height="30" as="geometry" />
        </mxCell>
        <mxCell id="CZpLwEG-HmLCasfUJhQn-17" value="" style="rounded=0;whiteSpace=wrap;html=1;" vertex="1" parent="1c1d494c118603dd-2">
          <mxGeometry x="47.5" y="110" width="155" height="60" as="geometry" />
        </mxCell>
        <mxCell id="CZpLwEG-HmLCasfUJhQn-18" value="" style="rounded=0;whiteSpace=wrap;html=1;" vertex="1" parent="1c1d494c118603dd-2">
          <mxGeometry x="65" y="180" width="120" height="60" as="geometry" />
        </mxCell>
        <mxCell id="CZpLwEG-HmLCasfUJhQn-19" value="" style="rounded=0;whiteSpace=wrap;html=1;" vertex="1" parent="1c1d494c118603dd-2">
          <mxGeometry x="65" y="250" width="120" height="60" as="geometry" />
        </mxCell>
        <mxCell id="CZpLwEG-HmLCasfUJhQn-20" value="" style="rounded=0;whiteSpace=wrap;html=1;" vertex="1" parent="1c1d494c118603dd-2">
          <mxGeometry x="65" y="320" width="120" height="60" as="geometry" />
        </mxCell>
        <mxCell id="CZpLwEG-HmLCasfUJhQn-21" value="" style="rounded=0;whiteSpace=wrap;html=1;" vertex="1" parent="1c1d494c118603dd-2">
          <mxGeometry x="65" y="390" width="120" height="60" as="geometry" />
        </mxCell>
        <mxCell id="CZpLwEG-HmLCasfUJhQn-22" value="" style="rounded=0;whiteSpace=wrap;html=1;" vertex="1" parent="1c1d494c118603dd-2">
          <mxGeometry x="65" y="460" width="120" height="60" as="geometry" />
        </mxCell>
        <mxCell id="CZpLwEG-HmLCasfUJhQn-23" value="" style="rounded=0;whiteSpace=wrap;html=1;" vertex="1" parent="1c1d494c118603dd-2">
          <mxGeometry x="42.5" y="530" width="165" height="60" as="geometry" />
        </mxCell>
        <mxCell id="CZpLwEG-HmLCasfUJhQn-24" value="" style="rounded=0;whiteSpace=wrap;html=1;" vertex="1" parent="1c1d494c118603dd-2">
          <mxGeometry x="65" y="600" width="120" height="60" as="geometry" />
        </mxCell>
        <mxCell id="CZpLwEG-HmLCasfUJhQn-25" value="" style="rounded=0;whiteSpace=wrap;html=1;" vertex="1" parent="1c1d494c118603dd-2">
          <mxGeometry x="65" y="670" width="120" height="60" as="geometry" />
        </mxCell>
        <mxCell id="CZpLwEG-HmLCasfUJhQn-26" value="" style="rounded=0;whiteSpace=wrap;html=1;" vertex="1" parent="1c1d494c118603dd-2">
          <mxGeometry x="37.5" y="740" width="175" height="60" as="geometry" />
        </mxCell>
        <mxCell id="CZpLwEG-HmLCasfUJhQn-27" value="F02&lt;br&gt;Connectie met andere systemen" style="text;html=1;align=center;verticalAlign=middle;whiteSpace=wrap;rounded=0;" vertex="1" parent="1c1d494c118603dd-2">
          <mxGeometry x="55" y="125" width="140" height="30" as="geometry" />
        </mxCell>
        <mxCell id="CZpLwEG-HmLCasfUJhQn-28" value="F03&lt;br&gt;Makkelijk gebruik" style="text;html=1;align=center;verticalAlign=middle;whiteSpace=wrap;rounded=0;" vertex="1" parent="1c1d494c118603dd-2">
          <mxGeometry x="67.5" y="195" width="110" height="30" as="geometry" />
        </mxCell>
        <mxCell id="CZpLwEG-HmLCasfUJhQn-29" value="F04&lt;br&gt;Een scherm" style="text;html=1;align=center;verticalAlign=middle;whiteSpace=wrap;rounded=0;" vertex="1" parent="1c1d494c118603dd-2">
          <mxGeometry x="77.5" y="265" width="90" height="30" as="geometry" />
        </mxCell>
        <mxCell id="CZpLwEG-HmLCasfUJhQn-30" value="F05 &lt;br&gt;Connectie met andere systemen" style="text;html=1;align=center;verticalAlign=middle;whiteSpace=wrap;rounded=0;" vertex="1" parent="1c1d494c118603dd-2">
          <mxGeometry x="70" y="335" width="110" height="30" as="geometry" />
        </mxCell>
        <mxCell id="CZpLwEG-HmLCasfUJhQn-31" value="F06&lt;br&gt;Front end" style="text;html=1;align=center;verticalAlign=middle;whiteSpace=wrap;rounded=0;" vertex="1" parent="1c1d494c118603dd-2">
          <mxGeometry x="95" y="400" width="60" height="40" as="geometry" />
        </mxCell>
        <mxCell id="CZpLwEG-HmLCasfUJhQn-32" value="F07 makkelijke opzet" style="text;html=1;align=center;verticalAlign=middle;whiteSpace=wrap;rounded=0;" vertex="1" parent="1c1d494c118603dd-2">
          <mxGeometry x="82.5" y="475" width="80" height="30" as="geometry" />
        </mxCell>
        <mxCell id="CZpLwEG-HmLCasfUJhQn-33" value="F08 Connectie met het snelheidsdetectiesysteem" style="text;html=1;align=center;verticalAlign=middle;whiteSpace=wrap;rounded=0;" vertex="1" parent="1c1d494c118603dd-2">
          <mxGeometry x="50" y="545" width="150" height="30" as="geometry" />
        </mxCell>
        <mxCell id="CZpLwEG-HmLCasfUJhQn-34" value="&lt;div&gt;F09&amp;nbsp;&lt;/div&gt;&lt;div&gt;Front end&lt;/div&gt;" style="text;html=1;align=center;verticalAlign=middle;whiteSpace=wrap;rounded=0;" vertex="1" parent="1c1d494c118603dd-2">
          <mxGeometry x="82.5" y="615" width="80" height="30" as="geometry" />
        </mxCell>
        <mxCell id="CZpLwEG-HmLCasfUJhQn-35" value="F10&lt;br&gt;Feedback" style="text;html=1;align=center;verticalAlign=middle;whiteSpace=wrap;rounded=0;" vertex="1" parent="1c1d494c118603dd-2">
          <mxGeometry x="92.5" y="685" width="60" height="30" as="geometry" />
        </mxCell>
        <mxCell id="CZpLwEG-HmLCasfUJhQn-36" value="F11 Connectie met het snelheidsdetectiesysteem" style="text;html=1;align=center;verticalAlign=middle;whiteSpace=wrap;rounded=0;" vertex="1" parent="1c1d494c118603dd-2">
          <mxGeometry x="7.5" y="755" width="230" height="30" as="geometry" />
        </mxCell>
        <mxCell id="1c1d494c118603dd-3" value="Use cases" style="swimlane;html=1;startSize=20;" parent="1c1d494c118603dd-1" vertex="1">
          <mxGeometry x="260" y="20" width="250" height="1050" as="geometry" />
        </mxCell>
        <mxCell id="CZpLwEG-HmLCasfUJhQn-3" value="" style="ellipse;whiteSpace=wrap;html=1;" vertex="1" parent="1c1d494c118603dd-3">
          <mxGeometry x="65" y="30" width="120" height="80" as="geometry" />
        </mxCell>
        <mxCell id="CZpLwEG-HmLCasfUJhQn-2" value="" style="ellipse;whiteSpace=wrap;html=1;" vertex="1" parent="1c1d494c118603dd-3">
          <mxGeometry x="65" y="310" width="120" height="80" as="geometry" />
        </mxCell>
        <mxCell id="CZpLwEG-HmLCasfUJhQn-1" value="" style="ellipse;whiteSpace=wrap;html=1;" vertex="1" parent="1c1d494c118603dd-3">
          <mxGeometry x="65" y="170" width="120" height="80" as="geometry" />
        </mxCell>
        <mxCell id="CZpLwEG-HmLCasfUJhQn-4" value="" style="ellipse;whiteSpace=wrap;html=1;" vertex="1" parent="1c1d494c118603dd-3">
          <mxGeometry x="65" y="440" width="120" height="80" as="geometry" />
        </mxCell>
        <mxCell id="CZpLwEG-HmLCasfUJhQn-5" value="" style="ellipse;whiteSpace=wrap;html=1;" vertex="1" parent="1c1d494c118603dd-3">
          <mxGeometry x="65" y="570" width="120" height="80" as="geometry" />
        </mxCell>
        <mxCell id="CZpLwEG-HmLCasfUJhQn-48" style="edgeStyle=orthogonalEdgeStyle;rounded=0;orthogonalLoop=1;jettySize=auto;html=1;exitX=0;exitY=0;exitDx=0;exitDy=0;strokeColor=#000000;" edge="1" parent="1c1d494c118603dd-3" source="CZpLwEG-HmLCasfUJhQn-7">
          <mxGeometry relative="1" as="geometry">
            <mxPoint x="-70" y="640" as="targetPoint" />
            <Array as="points">
              <mxPoint x="-20" y="872" />
              <mxPoint x="-20" y="640" />
            </Array>
          </mxGeometry>
        </mxCell>
        <mxCell id="CZpLwEG-HmLCasfUJhQn-7" value="" style="ellipse;whiteSpace=wrap;html=1;" vertex="1" parent="1c1d494c118603dd-3">
          <mxGeometry x="65" y="860" width="120" height="80" as="geometry" />
        </mxCell>
        <mxCell id="CZpLwEG-HmLCasfUJhQn-6" value="" style="ellipse;whiteSpace=wrap;html=1;" vertex="1" parent="1c1d494c118603dd-3">
          <mxGeometry x="65" y="720" width="120" height="80" as="geometry" />
        </mxCell>
        <mxCell id="CZpLwEG-HmLCasfUJhQn-8" value="Snelheid meten" style="text;html=1;align=center;verticalAlign=middle;whiteSpace=wrap;rounded=0;" vertex="1" parent="1c1d494c118603dd-3">
          <mxGeometry x="95" y="55" width="60" height="30" as="geometry" />
        </mxCell>
        <mxCell id="CZpLwEG-HmLCasfUJhQn-9" value="Snelheid door versturen" style="text;html=1;align=center;verticalAlign=middle;whiteSpace=wrap;rounded=0;" vertex="1" parent="1c1d494c118603dd-3">
          <mxGeometry x="85" y="195" width="80" height="30" as="geometry" />
        </mxCell>
        <mxCell id="CZpLwEG-HmLCasfUJhQn-10" value="Snelheid tonen" style="text;html=1;align=center;verticalAlign=middle;whiteSpace=wrap;rounded=0;" vertex="1" parent="1c1d494c118603dd-3">
          <mxGeometry x="95" y="335" width="60" height="30" as="geometry" />
        </mxCell>
        <mxCell id="CZpLwEG-HmLCasfUJhQn-11" value="Opslaan van de snelheden" style="text;html=1;align=center;verticalAlign=middle;whiteSpace=wrap;rounded=0;" vertex="1" parent="1c1d494c118603dd-3">
          <mxGeometry x="80" y="465" width="90" height="30" as="geometry" />
        </mxCell>
        <mxCell id="CZpLwEG-HmLCasfUJhQn-12" value="Toont beste snelheden" style="text;html=1;align=center;verticalAlign=middle;whiteSpace=wrap;rounded=0;" vertex="1" parent="1c1d494c118603dd-3">
          <mxGeometry x="85" y="595" width="80" height="30" as="geometry" />
        </mxCell>
        <mxCell id="CZpLwEG-HmLCasfUJhQn-13" value="Snelheden exporteren" style="text;html=1;align=center;verticalAlign=middle;whiteSpace=wrap;rounded=0;" vertex="1" parent="1c1d494c118603dd-3">
          <mxGeometry x="95" y="745" width="60" height="30" as="geometry" />
        </mxCell>
        <mxCell id="CZpLwEG-HmLCasfUJhQn-14" value="Toont snelheden op UI" style="text;html=1;align=center;verticalAlign=middle;whiteSpace=wrap;rounded=0;" vertex="1" parent="1c1d494c118603dd-3">
          <mxGeometry x="70" y="885" width="110" height="30" as="geometry" />
        </mxCell>
        <mxCell id="1c1d494c118603dd-4" value="Classes" style="swimlane;html=1;startSize=20;" parent="1c1d494c118603dd-1" vertex="1">
          <mxGeometry x="510" y="20" width="250" height="1050" as="geometry" />
        </mxCell>
        <mxCell id="CZpLwEG-HmLCasfUJhQn-37" style="edgeStyle=orthogonalEdgeStyle;rounded=0;orthogonalLoop=1;jettySize=auto;html=1;exitX=0;exitY=0.5;exitDx=0;exitDy=0;entryX=1;entryY=0.25;entryDx=0;entryDy=0;strokeColor=#CC0000;" edge="1" parent="1c1d494c118603dd-1" source="CZpLwEG-HmLCasfUJhQn-3" target="CZpLwEG-HmLCasfUJhQn-16">
          <mxGeometry relative="1" as="geometry" />
        </mxCell>
        <mxCell id="CZpLwEG-HmLCasfUJhQn-38" style="edgeStyle=orthogonalEdgeStyle;rounded=0;orthogonalLoop=1;jettySize=auto;html=1;exitX=0;exitY=0;exitDx=0;exitDy=0;entryX=1;entryY=0.25;entryDx=0;entryDy=0;strokeColor=#CC0000;" edge="1" parent="1c1d494c118603dd-1" source="CZpLwEG-HmLCasfUJhQn-3" target="CZpLwEG-HmLCasfUJhQn-17">
          <mxGeometry relative="1" as="geometry">
            <Array as="points">
              <mxPoint x="280" y="62" />
              <mxPoint x="280" y="145" />
            </Array>
          </mxGeometry>
        </mxCell>
        <mxCell id="CZpLwEG-HmLCasfUJhQn-39" style="edgeStyle=orthogonalEdgeStyle;rounded=0;orthogonalLoop=1;jettySize=auto;html=1;exitX=0;exitY=0;exitDx=0;exitDy=0;entryX=1;entryY=0.5;entryDx=0;entryDy=0;strokeColor=#666600;" edge="1" parent="1c1d494c118603dd-1" source="CZpLwEG-HmLCasfUJhQn-1" target="CZpLwEG-HmLCasfUJhQn-17">
          <mxGeometry relative="1" as="geometry">
            <Array as="points">
              <mxPoint x="280" y="202" />
              <mxPoint x="280" y="160" />
            </Array>
          </mxGeometry>
        </mxCell>
        <mxCell id="CZpLwEG-HmLCasfUJhQn-40" style="edgeStyle=orthogonalEdgeStyle;rounded=0;orthogonalLoop=1;jettySize=auto;html=1;exitX=0;exitY=1;exitDx=0;exitDy=0;entryX=1;entryY=0.25;entryDx=0;entryDy=0;strokeColor=#CC0000;" edge="1" parent="1c1d494c118603dd-1" source="CZpLwEG-HmLCasfUJhQn-3" target="CZpLwEG-HmLCasfUJhQn-18">
          <mxGeometry relative="1" as="geometry">
            <Array as="points">
              <mxPoint x="240" y="118" />
              <mxPoint x="240" y="215" />
            </Array>
          </mxGeometry>
        </mxCell>
        <mxCell id="CZpLwEG-HmLCasfUJhQn-41" style="edgeStyle=orthogonalEdgeStyle;rounded=0;orthogonalLoop=1;jettySize=auto;html=1;exitX=0;exitY=0;exitDx=0;exitDy=0;entryX=1;entryY=0.25;entryDx=0;entryDy=0;strokeColor=#0000CC;" edge="1" parent="1c1d494c118603dd-1" source="CZpLwEG-HmLCasfUJhQn-2" target="CZpLwEG-HmLCasfUJhQn-19">
          <mxGeometry relative="1" as="geometry">
            <Array as="points">
              <mxPoint x="310" y="342" />
              <mxPoint x="310" y="285" />
            </Array>
          </mxGeometry>
        </mxCell>
        <mxCell id="CZpLwEG-HmLCasfUJhQn-42" style="edgeStyle=orthogonalEdgeStyle;rounded=0;orthogonalLoop=1;jettySize=auto;html=1;exitX=0;exitY=0.5;exitDx=0;exitDy=0;entryX=1;entryY=0.25;entryDx=0;entryDy=0;strokeColor=#666600;" edge="1" parent="1c1d494c118603dd-1" source="CZpLwEG-HmLCasfUJhQn-1" target="CZpLwEG-HmLCasfUJhQn-20">
          <mxGeometry relative="1" as="geometry">
            <Array as="points">
              <mxPoint x="240" y="230" />
              <mxPoint x="240" y="355" />
            </Array>
          </mxGeometry>
        </mxCell>
        <mxCell id="CZpLwEG-HmLCasfUJhQn-43" style="edgeStyle=orthogonalEdgeStyle;rounded=0;orthogonalLoop=1;jettySize=auto;html=1;exitX=0;exitY=0.5;exitDx=0;exitDy=0;entryX=1;entryY=0.5;entryDx=0;entryDy=0;strokeColor=#0000CC;" edge="1" parent="1c1d494c118603dd-1" source="CZpLwEG-HmLCasfUJhQn-2" target="CZpLwEG-HmLCasfUJhQn-20">
          <mxGeometry relative="1" as="geometry" />
        </mxCell>
        <mxCell id="CZpLwEG-HmLCasfUJhQn-44" style="edgeStyle=orthogonalEdgeStyle;rounded=0;orthogonalLoop=1;jettySize=auto;html=1;exitX=0;exitY=1;exitDx=0;exitDy=0;entryX=1;entryY=0.25;entryDx=0;entryDy=0;strokeColor=#0000CC;" edge="1" parent="1c1d494c118603dd-1" source="CZpLwEG-HmLCasfUJhQn-2" target="CZpLwEG-HmLCasfUJhQn-21">
          <mxGeometry relative="1" as="geometry">
            <Array as="points">
              <mxPoint x="240" y="398" />
              <mxPoint x="240" y="425" />
            </Array>
          </mxGeometry>
        </mxCell>
        <mxCell id="CZpLwEG-HmLCasfUJhQn-45" style="edgeStyle=orthogonalEdgeStyle;rounded=0;orthogonalLoop=1;jettySize=auto;html=1;exitX=0;exitY=0.5;exitDx=0;exitDy=0;entryX=0.927;entryY=0.076;entryDx=0;entryDy=0;entryPerimeter=0;strokeColor=#FF0080;" edge="1" parent="1c1d494c118603dd-1" source="CZpLwEG-HmLCasfUJhQn-4" target="CZpLwEG-HmLCasfUJhQn-23">
          <mxGeometry relative="1" as="geometry" />
        </mxCell>
        <mxCell id="CZpLwEG-HmLCasfUJhQn-46" style="edgeStyle=orthogonalEdgeStyle;rounded=0;orthogonalLoop=1;jettySize=auto;html=1;exitX=0;exitY=0;exitDx=0;exitDy=0;entryX=1;entryY=0.5;entryDx=0;entryDy=0;strokeColor=#00CC00;" edge="1" parent="1c1d494c118603dd-1" source="CZpLwEG-HmLCasfUJhQn-5" target="CZpLwEG-HmLCasfUJhQn-22">
          <mxGeometry relative="1" as="geometry">
            <Array as="points">
              <mxPoint x="230" y="602" />
              <mxPoint x="230" y="510" />
            </Array>
          </mxGeometry>
        </mxCell>
        <mxCell id="CZpLwEG-HmLCasfUJhQn-47" style="edgeStyle=orthogonalEdgeStyle;rounded=0;orthogonalLoop=1;jettySize=auto;html=1;exitX=0;exitY=0;exitDx=0;exitDy=0;entryX=1;entryY=0.25;entryDx=0;entryDy=0;strokeColor=#009999;" edge="1" parent="1c1d494c118603dd-1" source="CZpLwEG-HmLCasfUJhQn-6" target="CZpLwEG-HmLCasfUJhQn-24">
          <mxGeometry relative="1" as="geometry">
            <Array as="points">
              <mxPoint x="230" y="752" />
              <mxPoint x="230" y="635" />
            </Array>
          </mxGeometry>
        </mxCell>
        <mxCell id="CZpLwEG-HmLCasfUJhQn-49" style="edgeStyle=orthogonalEdgeStyle;rounded=0;orthogonalLoop=1;jettySize=auto;html=1;exitX=0;exitY=1;exitDx=0;exitDy=0;entryX=1;entryY=0.75;entryDx=0;entryDy=0;strokeColor=#00CC00;" edge="1" parent="1c1d494c118603dd-1" source="CZpLwEG-HmLCasfUJhQn-5" target="CZpLwEG-HmLCasfUJhQn-25">
          <mxGeometry relative="1" as="geometry">
            <Array as="points">
              <mxPoint x="310" y="658" />
              <mxPoint x="310" y="735" />
            </Array>
          </mxGeometry>
        </mxCell>
        <mxCell id="CZpLwEG-HmLCasfUJhQn-51" style="edgeStyle=orthogonalEdgeStyle;rounded=0;orthogonalLoop=1;jettySize=auto;html=1;exitX=0;exitY=1;exitDx=0;exitDy=0;entryX=1;entryY=0.5;entryDx=0;entryDy=0;strokeColor=#0000CC;" edge="1" parent="1c1d494c118603dd-1" source="CZpLwEG-HmLCasfUJhQn-2" target="CZpLwEG-HmLCasfUJhQn-25">
          <mxGeometry relative="1" as="geometry">
            <Array as="points">
              <mxPoint x="290" y="398" />
              <mxPoint x="290" y="720" />
            </Array>
          </mxGeometry>
        </mxCell>
        <mxCell id="CZpLwEG-HmLCasfUJhQn-52" style="edgeStyle=orthogonalEdgeStyle;rounded=0;orthogonalLoop=1;jettySize=auto;html=1;exitX=0;exitY=1;exitDx=0;exitDy=0;entryX=1;entryY=0.75;entryDx=0;entryDy=0;strokeColor=#FF0080;" edge="1" parent="1c1d494c118603dd-1" source="CZpLwEG-HmLCasfUJhQn-4" target="CZpLwEG-HmLCasfUJhQn-26">
          <mxGeometry relative="1" as="geometry">
            <Array as="points">
              <mxPoint x="300" y="528" />
              <mxPoint x="300" y="805" />
            </Array>
          </mxGeometry>
        </mxCell>
      </root>
    </mxGraphModel>
  </diagram>
</mxfile>
